<?xml version="1.0" encoding="UTF-8" standalone="no"?>
<!-- Created with Inkscape (http://www.inkscape.org/) -->

<svg
   width="100mm"
   height="20.355083mm"
   viewBox="0 0 100 20.355084"
   version="1.1"
   id="svg1"
   sodipodi:docname="logo-black.svg"
   inkscape:version="1.3.2 (091e20e, 2023-11-25)"
   xmlns:inkscape="http://www.inkscape.org/namespaces/inkscape"
   xmlns:sodipodi="http://sodipodi.sourceforge.net/DTD/sodipodi-0.dtd"
   xmlns="http://www.w3.org/2000/svg"
   xmlns:svg="http://www.w3.org/2000/svg">
  <sodipodi:namedview
     id="namedview1"
     pagecolor="#ffffff"
     bordercolor="#000000"
     borderopacity="0.25"
     inkscape:showpageshadow="2"
     inkscape:pageopacity="0.0"
     inkscape:pagecheckerboard="0"
     inkscape:deskcolor="#d1d1d1"
     inkscape:document-units="mm"
     shape-rendering="auto"
     inkscape:clip-to-page="true"
     inkscape:zoom="4.6081907"
     inkscape:cx="93.74612"
     inkscape:cy="19.096432"
     inkscape:window-width="5120"
     inkscape:window-height="1387"
     inkscape:window-x="0"
     inkscape:window-y="25"
     inkscape:window-maximized="0"
     inkscape:current-layer="svg1" />
  <defs
     id="defs1" />
  <g
     id="layer1"
     transform="matrix(2.013501,0,0,2.013501,-127.79854,-112.03295)">
    <path
       d="m 84.464393,59.074944 q 0,-0.479558 0.341753,-0.821312 0.341754,-0.341753 0.821312,-0.341753 h 2.022962 q 0.567752,0 1.036286,0.28112 0.468533,0.275608 0.744141,0.738629 0.28112,0.463021 0.28112,1.030774 v 1.598525 q 0,0.567753 -0.28112,1.036286 -0.275608,0.468534 -0.744141,0.749654 -0.468534,0.275608 -1.036286,0.275608 h -1.361503 v -1.163066 h 1.361503 q 0.374827,0 0.633898,-0.264583 0.264584,-0.270096 0.264584,-0.644923 v -1.576477 q 0,-0.374827 -0.264584,-0.633898 -0.259071,-0.264584 -0.633898,-0.264584 h -2.022962 v 6.675224 h -1.163065 z m 6.570492,0.01654 q 0,-0.490582 0.358291,-0.832335 0.35829,-0.347266 0.859896,-0.347266 h 2.381253 q 0.457509,0 0.826824,0.225998 0.374826,0.220486 0.595313,0.600825 0.225998,0.374827 0.225998,0.832336 v 0.159853 q 0,0.451997 -0.225998,0.826824 -0.220487,0.369314 -0.595313,0.595313 -0.369315,0.220486 -0.826824,0.220486 H 92.85941 v -1.157553 h 1.785939 q 0.198438,0 0.336242,-0.143316 0.143316,-0.143316 0.143316,-0.347266 v -0.154341 q 0,-0.209462 -0.143316,-0.352778 -0.137804,-0.143316 -0.336242,-0.143316 h -2.447398 v 2.932468 q 0,0.187414 0.12678,0.319705 0.126779,0.132292 0.30868,0.132292 h 3.246662 v 1.163066 h -3.246662 q -0.440972,0 -0.804775,-0.214975 -0.363802,-0.220486 -0.578776,-0.584288 -0.214975,-0.369315 -0.214975,-0.810288 z m 6.515372,0.418925 q 0,-0.440973 0.220486,-0.804776 0.225999,-0.363802 0.595313,-0.578776 0.374827,-0.214974 0.826824,-0.214974 h 1.27331 v 1.157553 h -1.27331 q -0.198438,0 -0.341754,0.137804 -0.137804,0.132292 -0.137804,0.325217 v 4.090022 h -1.163065 z m 3.830953,-3.152955 q 0,-0.297657 0.20946,-0.507119 0.20946,-0.209462 0.50712,-0.209462 0.29765,0 0.50712,0.209462 0.20946,0.209462 0.20946,0.507119 0,0.297656 -0.20946,0.507118 -0.20947,0.209463 -0.50712,0.209463 -0.29766,0 -0.50712,-0.209463 -0.20946,-0.209462 -0.20946,-0.507118 z m 0.13229,1.554429 h 1.16858 v 5.710596 h -1.16858 z m 2.43637,1.163065 q 0,-0.479558 0.34176,-0.821312 0.34175,-0.341753 0.82131,-0.341753 h 2.02296 q 0.56775,0 1.03629,0.28112 0.46853,0.275608 0.74414,0.738629 0.28112,0.463021 0.28112,1.030774 v 1.598525 q 0,0.567753 -0.28112,1.036286 -0.27561,0.468534 -0.74414,0.749654 -0.46854,0.275608 -1.03629,0.275608 h -1.3615 v -1.163066 h 1.3615 q 0.37483,0 0.6339,-0.264583 0.26458,-0.270096 0.26458,-0.644923 V 59.97343 q 0,-0.374827 -0.26458,-0.633898 -0.25907,-0.264584 -0.6339,-0.264584 h -2.02296 v 6.675224 h -1.16307 z m 6.57049,-3.290759 h 1.16307 v 2.127694 h 1.79696 q 0.59532,0 1.08039,0.28112 0.49058,0.275608 0.77721,0.744141 0.29215,0.463021 0.29215,1.030774 v 3.654561 h -1.16307 V 59.98445 q 0,-0.363802 -0.29766,-0.633898 -0.29214,-0.275608 -0.68902,-0.275608 h -1.79696 v 4.547531 h -1.16307 z m 6.43269,0 h 1.16307 v 7.83829 h -1.16307 z m 2.48599,3.307295 q 0,-0.490582 0.35829,-0.832335 0.35829,-0.347266 0.8599,-0.347266 h 2.38125 q 0.45751,0 0.82682,0.225998 0.37483,0.220486 0.59532,0.600825 0.22599,0.374827 0.22599,0.832336 v 0.159853 q 0,0.451997 -0.22599,0.826824 -0.22049,0.369314 -0.59532,0.595313 -0.36931,0.220486 -0.82682,0.220486 h -1.77492 v -1.157553 h 1.78594 q 0.19844,0 0.33624,-0.143316 0.14332,-0.143316 0.14332,-0.347266 v -0.154341 q 0,-0.209462 -0.14332,-0.352778 -0.1378,-0.143316 -0.33624,-0.143316 h -2.4474 v 2.932468 q 0,0.187414 0.12678,0.319705 0.12678,0.132292 0.30869,0.132292 h 3.24666 v 1.163066 h -3.24666 q -0.44098,0 -0.80478,-0.214975 -0.3638,-0.220486 -0.57878,-0.584288 -0.21497,-0.369315 -0.21497,-0.810288 z m 8.3454,1.670184 -2.32613,-2.849785 h 1.48277 l 1.60404,1.978864 1.60404,-1.978864 h 1.47726 l -2.32062,2.849785 2.32062,2.860811 h -1.47175 l -1.60955,-1.978865 -1.60955,1.978865 h -1.47726 z"
       id="text10"
       style="font-style:italic;font-weight:bold;font-size:11.2889px;font-family:Anta;-inkscape-font-specification:'Anta Bold Italic';stroke-width:0.264583"
       transform="skewX(-17.70793)"
       aria-label="periphlex" />
  </g>
</svg>
