<?xml version="1.0" encoding="UTF-8" standalone="no"?>
<!-- Created with Inkscape (http://www.inkscape.org/) -->

<svg
   width="100mm"
   height="20.355083mm"
   viewBox="0 0 100 20.355084"
   version="1.1"
   id="svg1"
   sodipodi:docname="logo-white.svg"
   inkscape:version="1.3.2 (091e20e, 2023-11-25)"
   xmlns:inkscape="http://www.inkscape.org/namespaces/inkscape"
   xmlns:sodipodi="http://sodipodi.sourceforge.net/DTD/sodipodi-0.dtd"
   xmlns="http://www.w3.org/2000/svg"
   xmlns:svg="http://www.w3.org/2000/svg">
  <sodipodi:namedview
     id="namedview1"
     pagecolor="#ffffff"
     bordercolor="#000000"
     borderopacity="0.25"
     inkscape:showpageshadow="2"
     inkscape:pageopacity="0.0"
     inkscape:pagecheckerboard="0"
     inkscape:deskcolor="#d1d1d1"
     inkscape:document-units="mm"
     inkscape:zoom="3.7344991"
     inkscape:cx="93.988508"
     inkscape:cy="19.011921"
     inkscape:window-width="5120"
     inkscape:window-height="1387"
     inkscape:window-x="0"
     inkscape:window-y="25"
     inkscape:window-maximized="0"
     inkscape:current-layer="layer1" />
  <defs
     id="defs1">
    <rect
       x="143.4151"
       y="209.19196"
       width="197.33055"
       height="104.59597"
       id="rect2" />
  </defs>
  <g
     id="layer1"
     transform="translate(-63.47081,-55.640869)">
    <path
       d="m 67.762293,62.555378 q 0.308307,-0.96559 1.216139,-1.653712 0.907834,-0.68812 1.873425,-0.68812 h 4.073236 q 1.143169,0 1.905832,0.566035 0.766204,0.554937 1.023466,1.48723 0.26836,0.932294 -0.09665,2.075465 l -1.027687,3.218632 q -0.365007,1.143171 -1.232261,2.086563 -0.856156,0.943393 -1.980279,1.509429 -1.120581,0.554937 -2.26375,0.554937 h -2.741388 l 0.747732,-2.341835 h 2.741388 q 0.754714,0 1.446454,-0.532738 0.706384,-0.543839 0.947359,-1.298553 l 1.013513,-3.174238 Q 75.6498,63.609758 75.283616,63.088119 74.932076,62.555378 74.177362,62.555378 H 70.104126 L 65.812643,75.995949 H 63.47081 Z m 13.219059,0.0333 q 0.315394,-0.987788 1.256525,-1.675908 0.944674,-0.69922 1.954658,-0.69922 h 4.794655 q 0.921195,0 1.519518,0.455047 0.612962,0.443949 0.812394,1.209762 0.214072,0.754714 -0.08006,1.675909 l -0.102769,0.321864 q -0.290588,0.910097 -0.98661,1.664811 -0.681382,0.743614 -1.581389,1.198664 -0.885366,0.443948 -1.80656,0.443948 h -3.573793 l 0.744187,-2.330734 h 3.59599 q 0.399555,0 0.769161,-0.288567 0.380704,-0.288567 0.511823,-0.69922 l 0.09923,-0.310766 q 0.134662,-0.421752 -0.06177,-0.710319 -0.185331,-0.288567 -0.584886,-0.288567 h -4.927839 l -1.885275,5.904528 q -0.120488,0.377358 0.04973,0.643726 0.17022,0.26637 0.536477,0.26637 h 6.537158 l -0.747732,2.341835 h -6.537157 q -0.887898,0 -1.482209,-0.432853 -0.590766,-0.443949 -0.789729,-1.176464 -0.195421,-0.743616 0.08808,-1.631516 z m 12.849382,0.843506 q 0.283501,-0.8879 0.961337,-1.620418 0.688937,-0.732515 1.570757,-1.165366 0.892921,-0.43285 1.803017,-0.43285 h 2.563815 l -0.744191,2.330734 h -2.563811 q -0.399556,0 -0.776716,0.277469 -0.362519,0.26637 -0.48655,0.654824 l -2.629464,8.235264 h -2.341832 z m 9.740656,-6.348478 q 0.19136,-0.599333 0.74777,-1.021085 0.55641,-0.421752 1.15575,-0.421752 0.59932,0 0.88642,0.421752 0.28709,0.421752 0.0957,1.021085 -0.19137,0.59933 -0.74778,1.021082 -0.55643,0.421754 -1.15575,0.421754 -0.59933,0 -0.88642,-0.421754 -0.28708,-0.421752 -0.0957,-1.021082 z m -0.73297,3.129844 h 2.35293 l -3.67132,11.498291 h -2.35294 z m 4.1579,2.341832 q 0.3083,-0.96559 1.21615,-1.653712 0.90783,-0.68812 1.87342,-0.68812 h 4.07323 q 1.14317,0 1.90584,0.566035 0.7662,0.554937 1.02347,1.487231 0.26836,0.932293 -0.0966,2.075464 l -1.02769,3.218632 q -0.365,1.143171 -1.23226,2.086563 -0.85616,0.943393 -1.98027,1.509429 -1.1206,0.554937 -2.26376,0.554937 h -2.74138 l 0.74773,-2.341835 h 2.74138 q 0.75472,0 1.44646,-0.532738 0.70637,-0.543839 0.94735,-1.298553 l 1.01351,-3.174238 q 0.24098,-0.754715 -0.1252,-1.276354 -0.35154,-0.532741 -1.10626,-0.532741 h -4.07323 l -4.29148,13.440571 h -2.34184 z m 15.34531,-6.625946 h 2.34184 l -1.36789,4.284114 h 3.61818 q 1.19868,0 1.99464,0.566035 0.81059,0.554937 1.0865,1.498329 0.29057,0.932293 -0.0744,2.075464 l -2.34951,7.358463 h -2.34184 l 2.33887,-7.325175 q 0.23389,-0.732516 -0.1918,-1.276355 -0.41104,-0.554937 -1.21016,-0.554937 h -3.61818 l -2.92359,9.156459 h -2.34185 z m 12.95222,0 h 2.34185 l -5.03922,15.782405 h -2.34184 z m 2.8793,6.659242 q 0.31539,-0.987788 1.25652,-1.675908 0.94467,-0.69922 1.95467,-0.69922 h 4.79464 q 0.9212,0 1.51951,0.455047 0.61297,0.443949 0.81241,1.209762 0.21406,0.754714 -0.0801,1.675909 l -0.10277,0.321864 q -0.29059,0.910097 -0.9866,1.664811 -0.68138,0.743614 -1.5814,1.198664 -0.88535,0.443948 -1.80655,0.443948 h -3.5738 l 0.74418,-2.330734 h 3.596 q 0.39955,0 0.76915,-0.288567 0.38071,-0.288567 0.51183,-0.69922 l 0.0992,-0.310766 q 0.13466,-0.421752 -0.0618,-0.710319 -0.18532,-0.288567 -0.58488,-0.288567 h -4.92784 l -1.88528,5.904528 q -0.12048,0.377358 0.0497,0.643726 0.17022,0.26637 0.5365,0.26637 h 6.53715 l -0.74773,2.341835 h -6.53716 q -0.88791,0 -1.48221,-0.432853 -0.59077,-0.443949 -0.78974,-1.176464 -0.19541,-0.743616 0.0881,-1.631516 z m 15.72971,3.362917 -2.85155,-5.738045 h 2.98556 l 1.95753,3.984445 4.50195,-3.984445 h 2.97446 l -6.50469,5.738045 2.83336,5.760246 h -2.96337 l -1.96862,-3.984447 -4.51304,3.984447 h -2.97446 z"
       id="text10"
       style="font-style:italic;font-weight:bold;font-size:11.2889px;font-family:Anta;-inkscape-font-specification:'Anta Bold Italic';fill:#ffffff;stroke-width:0.532738"
       aria-label="periphlex" />
  </g>
</svg>
